PathFileType	4	(X/Y/Z)	Run_400 02
DataRate	CameraRate	NumFrames	NumMarkers	Units	OrigDataRate	OrigDataStartFrame	OrigNumFrames
100	100	6	42	mm	100	8	128
Frame#	Time	LASI			RASI			LPSI			RPSI			RTH1			RTH2			RTH3			LTH1			LTH2			LTH3			RTB1			RTB2			RTB3			LTB1			LTB2			LTB3			RCAL			RTOE			RMT5			LCAL			LTOE			LMT5			LACR			RACR			CLAV			C7			RUA1			RUA2			RUA3			RLEL			RMEL			LUA1			LUA2			LUA3			LLEL			LMEL			RFAsuperior			RFAradius			RFAulna			LFAsuperior			LFAradius			LFAulna			
		X1	Y1	Z1	X2	Y2	Z2	X3	Y3	Z3	X4	Y4	Z4	X5	Y5	Z5	X6	Y6	Z6	X7	Y7	Z7	X8	Y8	Z8	X9	Y9	Z9	X10	Y10	Z10	X11	Y11	Z11	X12	Y12	Z12	X13	Y13	Z13	X14	Y14	Z14	X15	Y15	Z15	X16	Y16	Z16	X17	Y17	Z17	X18	Y18	Z18	X19	Y19	Z19	X20	Y20	Z20	X21	Y21	Z21	X22	Y22	Z22	X23	Y23	Z23	X24	Y24	Z24	X25	Y25	Z25	X26	Y26	Z26	X27	Y27	Z27	X28	Y28	Z28	X29	Y29	Z29	X30	Y30	Z30	X31	Y31	Z31	X32	Y32	Z32	X33	Y33	Z33	X34	Y34	Z34	X35	Y35	Z35	X36	Y36	Z36	X37	Y37	Z37	X38	Y38	Z38	X39	Y39	Z39	X40	Y40	Z40	X41	Y41	Z41	X42	Y42	Z42	

1	0.54	765.336955	1024.647149	-441.008946	759.671387	1028.114336	-185.070699	595.834912	1053.692528	-362.027352	592.175632	1042.348365	-259.236982	702.608558	820.579478	-132.822015	823.434048	748.282641	-147.011266	806.0612170000001	620.157906	-184.647303	652.500026	834.668447	-483.529249	677.359292	693.171678	-457.003021	588.055613	598.414589	-449.265954	942.98421	417.347391	-266.832659	932.3214390000001	351.929866	-203.875552	965.420181	251.416275	-277.077386	440.7497	413.585949	-386.165674	351.574604	435.19966	-458.014579	290.7843	373.358593	-393.855092	896.001977	88.920074	-292.083914	1111.936177	148.529118	-298.366601	1071.88067	106.095306	-212.63841	156.234348	449.643444	-402.529375	120.626113	229.686628	-350.941926	90.791061	269.171876	-444.458532	780.848795	1488.32607	-478.146583	722.148281	1513.505049	-157.275139	796.145037	1438.079438	-275.331378	686.295859	1519.663116	-328.54335	633.1055720000001	1471.57443	-90.11859200000001	563.602906	1420.674279	-141.49579	550.628592	1373.768583	-79.18489099999999	472.762485	1294.273044	-61.445442	478.800729	1284.094571	-142.7135	765.685725	1399.612378	-562.8820449999999	708.234977	1318.385381	-556.352754	741.561794	1256.816257	-602.5719340000001	765.759918	1170.763967	-622.717262	707.222747	1159.180967	-560.583256	546.716707	1213.679123	-39.651391	665.544181	1105.326124	-58.04031	604.347394	1066.668169	-60.142156	851.308512	1183.239194	-550.84708	923.437378	1214.933947	-409.768984	950.996502	1151.828986	-432.627641	
2	0.55	764.0010600000001	1020.34131	-441.967662	757.824834	1023.720119	-184.135193	594.12078	1044.514149	-361.669376	589.514609	1032.803622	-259.045134	703.577496	816.227558	-133.321907	826.0130810000001	747.1929	-147.3964	807.2119709999999	616.928331	-186.086017	657.532686	827.075558	-484.875741	686.518425	685.992327	-457.598233	601.304021	588.305286	-449.800987	935.598279	408.919078	-269.835371	922.855816	344.549281	-208.122962	949.464577	241.964569	-280.035091	455.681257	409.236256	-385.64003	367.792618	437.703604	-458.840196	304.32293	380.675415	-394.524745	870.6977910000001	90.098342	-296.400958	1090.120913	126.461422	-300.097822	1044.191229	91.87543700000001	-213.53128	178.425895	466.028927	-402.831324	121.531257	249.561252	-355.720652	96.42202	293.455082	-448.428781	780.051541	1482.646131	-476.959613	725.486665	1506.455008	-155.538616	796.833439	1431.332627	-274.914678	686.9466619999999	1514.129669	-325.772609	638.06522	1463.33873	-86.125124	567.047939	1412.210757	-135.772691	557.028915	1363.9942	-73.82410900000001	480.460307	1283.707599	-54.847119	486.071956	1273.626231	-136.534878	763.322039	1394.819343	-562.06307	704.748465	1314.643804	-555.92517	736.89859	1252.722033	-602.6321380000001	759.406011	1166.551478	-623.423559	701.593119	1155.94777	-561.600915	556.054749	1204.275136	-34.836803	676.019689	1098.118918	-55.602103	615.576782	1058.44386	-56.942852	845.71145	1174.384982	-551.620856	919.208118	1201.327041	-409.923946	944.337302	1137.418229	-434.163639	
3	0.5600000000000001	762.676138	1014.762698	-442.971944	755.962476	1018.32932	-182.981852	592.36724	1034.277568	-361.651395	586.762006	1023.589531	-259.285144	704.701468	811.3270690000001	-135.944108	828.070961	744.727595	-149.986982	805.695232	611.674097	-187.509929	661.881131	818.318372	-486.042478	695.4833609999999	678.464834	-459.628053	614.971533	577.962298	-450.956636	927.216951	399.09838	-271.485584	910.2411970000001	335.717476	-212.261909	930.130145	230.831106	-281.822723	473.244214	404.895618	-385.169177	386.462874	438.749804	-459.609762	321.181992	386.119408	-394.962976	840.502551	92.336341	-300.361209	1062.391989	103.946097	-301.245232	1011.722399	76.736428	-214.801962	203.121454	478.554019	-401.181925	128.538907	265.835695	-361.096979	107.848084	314.44673	-452.385343	779.038731	1475.936591	-475.858095	728.860399	1498.481079	-153.953262	797.56744	1423.562185	-274.672907	687.158078	1507.547533	-323.100089	643.277651	1454.006614	-81.95150599999999	570.741936	1402.700235	-129.41964	564.023762	1353.109801	-67.92190600000001	488.933392	1271.881879	-47.593233	493.691199	1261.928194	-129.584652	760.330766	1388.878473	-561.398127	700.531559	1309.964458	-555.307635	731.285747	1247.732906	-602.712835	751.458758	1161.718337	-623.644638	694.145809	1152.071607	-562.055925	566.300248	1193.849909	-29.464207	687.546159	1090.275695	-52.81888	627.977839	1049.404143	-53.248574	838.897677	1164.371432	-553.187576	914.764913	1185.602402	-411.365627	936.895321	1120.851844	-437.257968	
4	0.57	761.284728	1008.122825	-443.865646	754.154418	1012.090519	-181.816405	590.221184	1023.172158	-362.192919	584.044167	1014.280937	-260.364846	704.453267	805.896279	-138.929618	827.293128	739.533724	-152.672065	801.890839	604.894985	-189.023826	665.657034	808.392739	-486.6123	704.593869	670.579694	-462.30841	629.399863	567.141166	-452.356857	918.324631	389.521184	-272.385507	895.863887	327.14461	-215.604511	908.7569999999999	220.45685	-282.739252	493.254326	400.779962	-384.766115	407.442594	438.528078	-460.365483	340.767986	389.585807	-395.315984	807.144155	94.70869	-303.320447	1030.432831	85.5457	-302.367435	976.801008	64.884249	-216.115586	227.908534	487.726332	-397.963608	142.159114	277.596448	-367.019988	124.706078	330.930574	-456.24997	777.752806	1468.51471	-475.093329	732.076677	1490.063979	-152.317804	798.402597	1415.096336	-274.626773	687.014022	1500.378708	-320.604888	648.649574	1443.554176	-77.659738	574.6323	1392.093647	-122.532959	571.455565	1341.12185	-61.53827	498.149596	1258.975841	-39.89629	500.706937	1249.036337	-121.77864	756.434826	1381.917069	-560.935526	695.5047080000001	1304.295917	-554.481373	724.713173	1241.848691	-602.783996	742.1028250000001	1156.11602	-623.425973	685.130979	1147.465788	-562.032655	577.356217	1182.593096	-23.693151	700.117705	1081.97675	-49.80924	641.53117	1039.77525	-49.203364	830.9687300000001	1153.488741	-555.339827	910.0169560000001	1167.64231	-414.119523	928.656592	1102.522078	-441.8883	
5	0.58	759.84876	1000.52735	-444.407405	752.265523	1005.46875	-180.565593	587.565454	1011.868948	-363.67097	581.477409	1004.72797	-262.552855	702.355296	801.304067	-140.470941	822.879476	732.20346	-153.294156	796.879021	598.300401	-190.836347	669.5705819999999	797.7837500000001	-486.370705	714.225365	662.707113	-464.858849	644.890481	555.991945	-453.514833	908.473383	381.735042	-273.34039	880.735812	320.857883	-217.70124	885.8928090000001	213.389547	-283.527235	515.50419	397.098857	-384.454523	430.431943	437.28356	-461.080122	362.744818	391.137431	-395.630329	771.72826	96.74818500000001	-305.133513	995.720555	73.72666700000001	-303.832848	940.674279	58.961211	-217.188836	251.945285	494.022632	-393.842028	162.0326	284.485659	-373.158803	146.279327	342.21963	-459.861229	776.046102	1460.918067	-474.906027	734.848324	1481.923905	-150.423159	799.258431	1406.463272	-274.644952	686.809872	1493.330187	-318.289077	654.33021	1432.099874	-73.373784	578.786192	1380.406907	-115.061407	579.425255	1328.124069	-54.727556	508.211171	1245.183189	-31.958602	506.988867	1235.029223	-113.150972	751.476275	1374.301639	-560.700606	689.599291	1297.751389	-553.514424	717.271912	1235.286706	-602.789967	731.689743	1149.78335	-623.253505	675.240329	1142.177527	-561.988997	589.242437	1170.696701	-17.686412	713.703203	1073.395843	-46.767364	656.215376	1029.813889	-45.035526	822.078345	1141.949043	-558.013839	904.895757	1147.515674	-418.203902	919.581114	1082.789088	-448.054784	
6	0.59	758.3392260000001	992.022416	-444.527307	750.19465	999.21577	-178.952116	584.692839	1001.825146	-366.126265	579.11798	995.950836	-265.547283	698.9069950000001	798.47719	-140.352092	816.0785	724.6635649999999	-151.902606	791.3143710000001	593.3739399999999	-192.786196	674.3702060000001	787.6113790000001	-485.525373	724.652981	655.675787	-466.94437	661.70062	545.449694	-454.183213	896.37072	376.150333	-274.658791	864.460592	317.573987	-218.661496	860.997131	210.231179	-284.664479	539.767566	394.032812	-384.265575	455.060914	435.203226	-461.629279	386.87573	390.935233	-395.874626	734.7291750000001	98.44452	-306.122486	959.105921	68.26642200000001	-304.856023	903.372073	58.265271	-217.728741	275.825667	497.517561	-389.623684	187.14621	286.764726	-378.80055	171.888024	348.128043	-463.057877	773.655939	1453.821033	-475.389997	736.92995	1474.705581	-148.312556	799.949552	1398.362322	-274.573793	686.805703	1487.059794	-316.147332	660.5505910000001	1420.188329	-69.342057	583.432484	1367.930592	-106.910361	588.330971	1314.599202	-47.671086	519.37739	1230.799716	-23.949652	513.42166	1220.22129	-104.001086	745.469511	1366.690046	-560.629836	682.795477	1290.758892	-552.380686	709.0831920000001	1228.637181	-602.567276	720.490889	1143.242473	-623.342546	665.044925	1136.559214	-562.047131	602.187597	1158.45818	-11.669251	728.261173	1064.790954	-43.910674	672.001766	1019.807668	-40.951819	812.328538	1129.882182	-561.236573	899.32421	1125.711949	-423.60267	909.526451	1061.932453	-455.742279	
